<svg width="32" height="32" viewBox="0 0 32 32" fill="none" xmlns="http://www.w3.org/2000/svg">
<path d="M7.23333 13.6331L10.7667 15.1331C11.1667 14.3331 11.5944 13.5442 12.05 12.7665C12.5056 11.9887 12.9889 11.2442 13.5 10.5331L10.8667 9.99979L7.23333 13.6331ZM12.3667 16.3331L16.8 20.7665C18.0667 20.1887 19.2556 19.5331 20.3667 18.7998C21.4778 18.0665 22.3778 17.3553 23.0667 16.6665C24.8667 14.8665 26.1889 13.022 27.0333 11.1331C27.8778 9.24423 28.3333 7.1109 28.4 4.73312C26.0222 4.79979 23.8889 5.25534 22 6.09979C20.1111 6.94423 18.2667 8.26646 16.4667 10.0665C15.7778 10.7553 15.0667 11.6553 14.3333 12.7665C13.6 13.8776 12.9444 15.0665 12.3667 16.3331ZM20 13.1331C19.5556 12.6887 19.3333 12.1387 19.3333 11.4831C19.3333 10.8276 19.5556 10.2776 20 9.83312C20.4444 9.38868 20.9944 9.16646 21.65 9.16646C22.3056 9.16646 22.8556 9.38868 23.3 9.83312C23.7444 10.2776 23.9667 10.8276 23.9667 11.4831C23.9667 12.1387 23.7444 12.6887 23.3 13.1331C22.8556 13.5776 22.3056 13.7998 21.65 13.7998C20.9944 13.7998 20.4444 13.5776 20 13.1331ZM19.5 25.8998L23.1333 22.2665L22.6 19.6331C21.8889 20.1442 21.1444 20.6276 20.3667 21.0831C19.5889 21.5387 18.8 21.9665 18 22.3665L19.5 25.8998ZM30.3667 2.76646C30.5667 5.78868 30.1889 8.54423 29.2333 11.0331C28.2778 13.522 26.7 15.8665 24.5 18.0665L24.4333 18.1331L24.3667 18.1998L25.1 21.8665C25.1667 22.1998 25.15 22.522 25.05 22.8331C24.95 23.1442 24.7778 23.422 24.5333 23.6665L18.8333 29.3998L16 22.7998L10.3333 17.1331L3.73333 14.2998L9.46667 8.59979C9.71111 8.35534 9.98889 8.18312 10.3 8.08312C10.6111 7.98312 10.9333 7.96646 11.2667 8.03312L14.9333 8.76646C14.9556 8.74423 14.9778 8.72757 15 8.71646C15.0222 8.70534 15.0444 8.68868 15.0667 8.66646C17.2667 6.46646 19.6111 4.88312 22.1 3.91646C24.5889 2.94979 27.3444 2.56646 30.3667 2.76646ZM5.96667 21.1665C6.74444 20.3887 7.69444 19.9942 8.81667 19.9831C9.93889 19.972 10.8889 20.3553 11.6667 21.1331C12.4444 21.9109 12.8278 22.8609 12.8167 23.9831C12.8056 25.1053 12.4111 26.0553 11.6333 26.8331C11.0556 27.4109 10.1611 27.8887 8.95 28.2665C7.73889 28.6442 5.92222 28.9998 3.5 29.3331C3.83333 26.9109 4.18333 25.0887 4.55 23.8665C4.91667 22.6442 5.38889 21.7442 5.96667 21.1665ZM7.36667 22.5998C7.05556 22.9331 6.77778 23.4553 6.53333 24.1665C6.28889 24.8776 6.07778 25.7887 5.9 26.8998C7.01111 26.722 7.92222 26.5109 8.63333 26.2665C9.34444 26.022 9.86667 25.7442 10.2 25.4331C10.6222 25.0553 10.8389 24.5831 10.85 24.0165C10.8611 23.4498 10.6667 22.9553 10.2667 22.5331C9.84444 22.1331 9.35 21.9387 8.78333 21.9498C8.21667 21.9609 7.74444 22.1776 7.36667 22.5998Z" fill="#7EB101"/>
</svg>
