<svg width="32" height="32" viewBox="0 0 32 32" fill="none" xmlns="http://www.w3.org/2000/svg">
<path d="M15.5 1.33307C17.5222 1.33307 19.25 2.03862 20.6833 3.44974C22.1167 4.86085 22.8333 6.57751 22.8333 8.59974C22.8333 9.75529 22.5833 10.8442 22.0833 11.8664C21.5833 12.8886 20.8778 13.7553 19.9667 14.4664H18.8333V12.7997C19.4778 12.2886 19.9722 11.6664 20.3167 10.9331C20.6611 10.1997 20.8333 9.42196 20.8333 8.59974C20.8333 7.13307 20.3111 5.88862 19.2667 4.8664C18.2222 3.84418 16.9667 3.33307 15.5 3.33307C14.0333 3.33307 12.7778 3.84418 11.7333 4.8664C10.6889 5.88862 10.1667 7.13307 10.1667 8.59974C10.1667 9.42196 10.3389 10.1997 10.6833 10.9331C11.0278 11.6664 11.5222 12.2886 12.1667 12.7997V15.1997C10.9222 14.5553 9.94446 13.6442 9.23335 12.4664C8.52224 11.2886 8.16668 9.99974 8.16668 8.59974C8.16668 6.57751 8.88335 4.86085 10.3167 3.44974C11.75 2.03862 13.4778 1.33307 15.5 1.33307ZM14.2333 29.3331C13.8556 29.3331 13.5 29.2608 13.1667 29.1164C12.8333 28.972 12.5445 28.7775 12.3 28.5331L5.43335 21.6664L7.30002 19.7331C7.61113 19.422 7.96113 19.1831 8.35002 19.0164C8.7389 18.8497 9.14446 18.822 9.56668 18.9331L12.1667 19.5331V8.6664C12.1667 7.73307 12.4889 6.94418 13.1333 6.29974C13.7778 5.65529 14.5667 5.33307 15.5 5.33307C16.4333 5.33307 17.2222 5.65529 17.8667 6.29974C18.5111 6.94418 18.8333 7.73307 18.8333 8.6664V14.3997H19.7C19.8111 14.3997 19.9111 14.422 20 14.4664C20.0889 14.5108 20.1889 14.5553 20.3 14.5997L25.2333 16.9997C25.7667 17.2442 26.1611 17.6386 26.4167 18.1831C26.6722 18.7275 26.7445 19.2886 26.6333 19.8664L25.4333 27.1331C25.3222 27.7775 25.0111 28.3053 24.5 28.7164C23.9889 29.1275 23.4111 29.3331 22.7667 29.3331H14.2333ZM13.9667 27.3331H23.3333L24.7667 19.0331L18.6667 15.9997H16.8333V8.6664C16.8333 8.2664 16.7111 7.94418 16.4667 7.69974C16.2222 7.45529 15.9 7.33307 15.5 7.33307C15.1 7.33307 14.7778 7.45529 14.5333 7.69974C14.2889 7.94418 14.1667 8.2664 14.1667 8.6664V21.9664L9.03335 20.8664L8.26668 21.6331L13.9667 27.3331ZM23.3333 27.3331H13.9667H23.3333Z" fill="#7EB101"/>
</svg>
